<?xml version="1.0" encoding="UTF-8"?>
<!DOCTYPE svg PUBLIC "-//W3C//DTD SVG 1.1//EN" "http://www.w3.org/Graphics/SVG/1.1/DTD/svg11.dtd">
<!-- Creator: CorelDRAW -->
<svg xmlns="http://www.w3.org/2000/svg" xml:space="preserve" width="188.322mm" height="185.879mm" version="1.1" style="shape-rendering:geometricPrecision; text-rendering:geometricPrecision; image-rendering:optimizeQuality; fill-rule:evenodd; clip-rule:evenodd"
viewBox="0 0 18817.93 18573.83"
 xmlns:xlink="http://www.w3.org/1999/xlink"
 xmlns:xodm="http://www.corel.com/coreldraw/odm/2003">
 <defs>
  <style type="text/css">
   <![CDATA[
    .fil6 {fill:#7A3D00}
    .fil0 {fill:#964D00}
    .fil3 {fill:#EF9E24}
    .fil2 {fill:#F8AD00}
    .fil5 {fill:#FDC56D}
    .fil4 {fill:#FEE0AD}
    .fil1 {fill:#FFC437}
    .fil7 {fill:white}
   ]]>
  </style>
 </defs>
 <g id="Camada_x0020_1">
  <metadata id="CorelCorpID_0Corel-Layer"/>
  <g id="_2145797212656">
   <path class="fil0" d="M9582.15 17587.11c87.35,147.09 155.52,322.35 200.81,528.82 21.63,98.65 -0.54,192.49 -64.05,271.02 -63.5,78.52 -150.64,119.84 -251.63,119.31 -79.93,-0.41 -159.88,-0.73 -239.81,-1.24 -21.9,-0.14 -43.3,-2.38 -63.95,-6.56 -47.79,28.86 -102.62,43.98 -162.59,44.44 -164.3,1.27 -328.61,2.76 -492.92,3.79 -24.75,0.16 -48.83,-2.31 -71.98,-7.22 -42.65,21.52 -90.61,33.1 -142.04,33.73 -792.73,9.68 -1587.16,-94.16 -2344.39,-331.88 -41.74,-13.11 -75.21,-31.32 -108.89,-59.24 -177.68,-147.3 -322.06,-320.07 -438.99,-509.72 -27,5.83 -55.25,8.26 -84.32,7.07 -1565.9,-64.31 -3041.38,-904.45 -4054.07,-2074.41 -848.47,-980.22 -1547.58,-2441.95 -1147.68,-3756.04 31.3,-102.83 103.9,-177.39 205.87,-211.38 101.97,-34 204.8,-17.94 291.54,45.54 1009.45,738.75 2100.47,1463.19 3346.92,1710.16 1.69,-46.59 3.91,-93.27 6.64,-140.02 -138.98,-50.69 -223.94,-185.23 -209.51,-333.14 87.05,-891.92 243.45,-1775.08 476.13,-2639.56 -98.64,-81.53 -139.99,-213.87 -101.23,-340.78 248.95,-815.1 536.28,-1619.24 868.48,-2404.31 -99.59,-63.85 -153.56,-169.55 -146.84,-288.4 35.25,-622.89 114.57,-1243.15 228.12,-1856.57 -100.95,-60.23 -159.76,-168.31 -154.34,-289.39 61.63,-1379.77 539.43,-2681.93 1532.55,-3662.67 843.4,-832.91 1967.27,-1332.58 3147.23,-1423.52 1149.45,-88.59 2312.52,216.59 3228.55,927.75 1060.74,823.53 1605.95,2034.64 1741.83,3351.32 4.99,48.35 -0.29,95.06 -14.8,138.01 5.66,2.68 11.29,5.32 16.9,7.93 211.09,98.29 416.56,226.54 566.66,407.46 2.15,2.59 4.25,5.2 6.31,7.82 2.02,2.36 3.99,4.74 5.91,7.13 1.09,1.35 2.16,2.71 3.21,4.07 102.81,129.84 170.79,278.26 197.5,442.4 78.26,480.85 -196.13,942.51 -529.01,1266 -112.14,108.96 -234.34,207.76 -362.22,297.61 -3.24,2.29 -6.04,4.18 -9.36,6.34 -435.72,283.84 -968.14,493.98 -1488.22,656.43 439.13,931.33 2341.37,1020.15 3231.49,426.97 126.26,-84.15 252.77,-194.15 366.84,-294.47 75.82,-66.69 160.94,-139.97 232.86,-212.65 31.98,-39.78 74.09,-72.09 124.38,-93.89 121.06,-52.47 254.17,-28.77 349.68,62.25 191.96,182.98 169.26,416.43 87.79,640.35 112.75,-19.92 225.39,-40.51 337.84,-62.2 202.34,-39.02 442.05,-71.44 646.51,-34.69 235.41,42.3 425.83,186.79 465.75,431.72 10.43,64.02 1.59,126.79 -22.79,182.11 38.29,103.8 20.44,220.67 -52.59,311.19 -1182.79,1465.94 -2693.97,2307.05 -4563.87,2377.42 96.12,588.08 142.54,1179.17 121.79,1756.59 54.54,30.59 100.28,77.6 130.32,137.74 636.03,1273.24 782.3,2533.62 -53.81,3490.97 621.37,68.18 1183.45,335.18 1412.02,1012.57 34.2,101.39 18.82,203.75 -43.7,290.6 -62.52,86.84 -154.69,133.92 -261.7,133.66 -68.79,-0.17 -137.34,-0.38 -206.11,-0.51 -33.9,0 -66.44,-4.85 -96.98,-14.16 -47.35,26.04 -100.85,38.95 -158.92,38.02 -125.58,-1.99 -251.16,-3.92 -376.73,-5.98 -36.06,-0.59 -70.55,-6.69 -102.66,-17.78 -29.23,8.09 -60.15,12.14 -92.32,11.83 -850.3,-7.96 -1700.82,-18.02 -2550.83,-23.9 -392.89,-1.61 -569.38,-356.33 -646.8,-690.56 -516.06,144.24 -1076.83,207.93 -1665.78,198.68z"/>
   <path class="fil1" d="M11261.26 11722.22c602.96,0 1091.75,-488.79 1091.75,-1091.74 0,-602.96 -488.79,-1091.75 -1091.75,-1091.75 -602.96,0 -1091.75,488.79 -1091.75,1091.75 0,602.95 488.79,1091.74 1091.75,1091.74z"/>
   <path class="fil2" d="M11261.26 9813.85c451.01,0 816.62,365.61 816.62,816.62 0,451 -365.61,816.61 -816.62,816.61 -451.01,0 -816.62,-365.61 -816.62,-816.61 0,-451.01 365.61,-816.62 816.62,-816.62z"/>
   <g>
    <path class="fil3" d="M423.22 11942.58c1147.32,839.64 2261.22,1545.82 3552.64,1780.97 154.43,1370.33 542.62,2400.09 1164.55,3089.27 15.31,206.05 78.71,387.86 190.2,545.41 -3013.07,-123.75 -5548.99,-3307.3 -4907.39,-5415.65zm4849.24 4153.26c-58.17,96.04 -122.48,190.68 -192.91,283.93 -710.03,-1098.46 -949.35,-2354.94 -717.99,-3769.44 -115.73,110.2 -210.56,223.87 -284.46,341.04 108.34,-1110.17 322.05,-2171.97 641.11,-3185.4 -104.29,83.32 -197.2,172.56 -278.73,267.73 324.48,-1062.4 700.3,-2057.49 1127.44,-2985.3 -138.59,71.98 -269.35,144.26 -392.28,216.85 36.22,-640.19 121.79,-1304.04 256.69,-1991.54 58.41,692.75 709.23,705.08 832.2,200.65 -553.16,328.08 -692.58,44.1 -418.24,-851.95 -9.21,5.44 -18.42,10.99 -27.61,16.62 7.22,-30.73 14.78,-61.34 22.61,-91.82l0.33 -1.24c7.73,-30.03 15.77,-59.92 24.1,-89.69l0.8 -2.82c8.17,-29.12 16.62,-58.12 25.35,-86.98l1.67 -5.42c8.5,-28 17.26,-55.89 26.3,-83.66l2.42 -7.34c8.86,-27.07 17.95,-54.03 27.29,-80.86l3.32 -9.37c9.16,-26.09 18.53,-52.09 28.14,-77.95l4.26 -11.3c9.42,-25.14 19.04,-50.17 28.89,-75.08 1.75,-4.42 3.54,-8.82 5.3,-13.23 9.69,-24.28 19.56,-48.47 29.66,-72.55 2.06,-4.92 4.17,-9.81 6.25,-14.72 9.88,-23.31 19.93,-46.54 30.2,-69.66 2.47,-5.57 4.98,-11.11 7.46,-16.67 10.07,-22.44 20.29,-44.8 30.72,-67.03 2.82,-6.03 5.69,-12.02 8.53,-18.03 10.27,-21.66 20.68,-43.25 31.3,-64.73 3.23,-6.53 6.5,-13.04 9.75,-19.56 10.34,-20.68 20.81,-41.3 31.46,-61.79 3.78,-7.26 7.59,-14.49 11.4,-21.73 10.36,-19.7 20.85,-39.31 31.51,-58.84 4.22,-7.74 8.48,-15.46 12.75,-23.16 10.43,-18.88 20.98,-37.67 31.69,-56.37 4.76,-8.31 9.55,-16.6 14.36,-24.87 10.38,-17.9 20.88,-35.71 31.51,-53.45 5.3,-8.84 10.63,-17.65 15.99,-26.45 10.34,-17 20.78,-33.91 31.35,-50.76 5.88,-9.37 11.79,-18.72 17.74,-28.04 10.33,-16.22 20.77,-32.38 31.31,-48.45 6.38,-9.72 12.8,-19.43 19.25,-29.1 10.18,-15.29 20.46,-30.51 30.85,-45.67 7.1,-10.38 14.25,-20.74 21.44,-31.06 10.02,-14.39 20.14,-28.71 30.33,-42.98 7.74,-10.83 15.52,-21.62 23.35,-32.39 9.77,-13.43 19.64,-26.8 29.55,-40.11 9.73,-13.06 19.54,-26.06 29.41,-39 8.35,-10.97 16.75,-21.9 25.2,-32.8 13.17,-16.95 26.49,-33.77 39.89,-50.53 5.34,-6.67 10.66,-13.35 16.04,-19.99 15.67,-19.36 31.53,-38.57 47.5,-57.66 3.2,-3.81 6.37,-7.64 9.56,-11.44 16.65,-19.75 33.47,-39.32 50.44,-58.77l8.54 -9.8c18.52,-21.1 37.24,-42.02 56.16,-62.75l3.37 -3.72c19.96,-21.85 40.15,-43.51 60.54,-64.96l0.44 -0.47c41.16,-43.29 83.18,-85.74 126,-127.32l1.04 -1.01c21.23,-20.61 42.69,-41.01 64.32,-61.18l1.01 -0.95c65.85,-61.36 133.53,-120.73 202.96,-178.01 248.52,134.16 474,302.77 676.44,505.86 46.08,-37.13 93.44,-72.71 142.01,-106.66 -202.55,-204.91 -422.08,-379.96 -658.6,-525.15l0.27 -0.2c10.68,-8.02 21.4,-16 32.17,-23.92 13.26,-9.77 26.58,-19.47 39.95,-29.1 10.92,-7.85 21.85,-15.67 32.85,-23.43 13.4,-9.46 26.86,-18.83 40.37,-28.14 13.43,-9.27 26.93,-18.46 40.48,-27.58 11.51,-7.75 23.05,-15.46 34.64,-23.1 13.87,-9.15 27.81,-18.23 41.78,-27.23 11.5,-7.4 23.03,-14.76 34.6,-22.05 13.92,-8.78 27.91,-17.5 41.94,-26.13 12.17,-7.48 24.39,-14.92 36.63,-22.29 13.7,-8.25 27.45,-16.43 41.25,-24.53 13.09,-7.69 26.23,-15.33 39.41,-22.88 12.8,-7.33 25.63,-14.61 38.5,-21.82 15.23,-8.53 30.51,-17 45.84,-25.35 11.05,-6.03 22.14,-11.98 33.25,-17.92 16.84,-8.98 33.72,-17.89 50.68,-26.66 9.52,-4.92 19.08,-9.79 28.64,-14.64 17.45,-8.86 34.96,-17.63 52.54,-26.26 9.18,-4.51 18.39,-8.98 27.61,-13.43 18.37,-8.87 36.82,-17.59 55.33,-26.2 8.49,-3.95 16.98,-7.89 25.49,-11.79 19.33,-8.84 38.74,-17.52 58.22,-26.09 8.13,-3.58 16.25,-7.16 24.39,-10.69 20.25,-8.76 40.6,-17.34 60.99,-25.8 8.67,-3.6 17.36,-7.19 26.05,-10.73 20.4,-8.31 40.89,-16.46 61.44,-24.47 8.62,-3.37 17.27,-6.69 25.93,-10.01 21.62,-8.27 43.33,-16.41 65.13,-24.34 7.19,-2.63 14.41,-5.2 21.62,-7.78 22.5,-8.06 45.07,-15.98 67.72,-23.68 6.66,-2.27 13.35,-4.47 20.02,-6.7 22.37,-7.48 44.83,-14.82 67.36,-21.95 6.66,-2.11 13.34,-4.18 20,-6.26 22.99,-7.15 46.07,-14.14 69.21,-20.92l18.09 -5.26c23.75,-6.84 47.58,-13.5 71.5,-19.94l17.43 -4.69c24.4,-6.48 48.89,-12.74 73.45,-18.81l15.88 -3.91c25.51,-6.21 51.11,-12.16 76.79,-17.91 4.27,-0.96 8.54,-1.95 12.82,-2.89 27.22,-6.02 54.56,-11.75 81.97,-17.25l8.28 -1.69c29.44,-5.85 58.98,-11.4 88.61,-16.66l7.11 -1.22c28.35,-4.98 56.78,-9.69 85.3,-14.12l9.62 -1.45c27.78,-4.25 55.64,-8.24 83.59,-11.97l11.16 -1.45c27.56,-3.6 55.2,-6.94 82.91,-10.02l11.81 -1.3c27.8,-3.02 55.69,-5.77 83.64,-8.25l10.79 -0.96c28.2,-2.45 56.48,-4.61 84.83,-6.52l10.66 -0.73c28.91,-1.87 57.91,-3.45 86.95,-4.77l8.29 -0.38c30.19,-1.31 60.45,-2.29 90.79,-2.99l4.98 -0.13c31.99,-0.7 64.05,-1.06 96.21,-1.06 540.34,0 1058.06,97.98 1536.82,277.32 -520.11,154.99 -1071.82,488.27 -1580.3,893.8 -2419.08,-593.21 -4211.56,2829.46 -1513.94,4655.17 -129.39,549.66 -118.8,1267.31 31.79,2152.93l0.45 -3.82c-145.7,1221.04 665.15,1754.26 2432.53,1599.68 112.18,2.84 194.57,63.22 247.18,181.14 -201.2,142.14 -448.65,253.9 -742.33,335.26 -30.2,8.37 -70.34,14.99 -95.2,33.63 -27.55,20.64 -37.72,51 -33.07,77.11 4.13,23.16 19.93,43.01 45.65,49.81 24.62,6.53 94.1,-7.07 122.65,-10.95 197.85,-26.88 422.01,-69.34 672.45,-127.35 157.5,120.39 -76.23,342.74 -186.58,418.12 -138.17,94.42 -319.48,187.96 -543.94,280.51 -91.36,37.68 -51.11,78.85 -24.39,71.69 240.9,-39.66 361.35,-59.48 361.35,-59.48 -2122.15,1326.39 -4859.56,518.18 -4664.47,-2273.01 -207.14,-212.66 -315.21,-466.77 -324.2,-762.31 -127.91,289.64 -81.18,552.5 140.2,788.59 -130.2,1647.03 617.39,2683.93 2242.76,3110.7 1111.71,1767.27 1195.69,3176.88 251.93,4228.8 -296.58,16.28 -575.47,92.49 -836.66,228.63 1025.27,-242.21 1625.99,38.27 1802.14,841.44 -159.6,-0.83 -239.4,-1.25 -239.4,-1.25 -95.6,-328.66 -283.75,-544.59 -564.44,-647.77 166.17,189.88 277.3,418.43 333.36,685.66 -328.31,2.53 -492.47,3.79 -492.47,3.79 -134.09,-290.5 -355.07,-486.22 -662.93,-587.17 187.21,159.77 336.22,364.33 447,613.69 -791.83,9.67 -1539.88,-96.05 -2244.17,-317.15 -443.81,-367.92 -701.62,-980.85 -773.43,-1838.76zm6564.18 -14551.7c508.25,215.65 968.39,524.42 1359.5,905.35 12.69,-95.79 29.71,-194.21 51.05,-295.26 19.48,-92.2 42.55,-186.6 69.22,-283.17 -5.94,-6.69 855.87,1627.15 941.4,2455.94 -175.42,-110.1 -263.13,-165.14 -263.13,-165.14 13.27,-425.78 -116.8,-778.17 -390.23,-1057.18 -288.6,689.44 -8.75,1231.67 839.54,1626.68 184.88,86.08 345.51,189.39 454.95,321.3 -1179.76,10.82 -2157.52,-450.91 -2933.3,-1385.18 -516.91,-616.4 -1048.59,-997.81 -1560.66,-1196.38 519.5,-484.19 978.03,-791.12 1431.67,-926.97zm1410.55 610.1c-7.82,-7.1 -15.68,-14.18 -23.55,-21.23 7.87,7.05 15.72,14.13 23.55,21.23zm-26.2 -23.6c-16.45,-14.71 -33.01,-29.3 -49.65,-43.78 16.65,14.48 33.2,29.07 49.65,43.78zm-50.94 -44.9c-17.13,-14.87 -34.35,-29.63 -51.69,-44.25 17.34,14.62 34.56,29.38 51.69,44.25zm-52.26 -44.73c-517.05,-436.04 -1128.47,-761.31 -1798.67,-939.76 16.75,4.47 33.45,9.01 50.13,13.65 -9.9,-205.55 -9.43,-399.26 1.41,-581.09 693.74,221.68 1329.63,618.92 1829.78,1195.73 -42.84,97.57 -78.3,194.76 -106.38,291.59 7.93,6.6 15.85,13.23 23.73,19.88zm-1799.39 -939.95c-17,-4.53 -34.01,-8.95 -51.08,-13.28 17.07,4.33 34.09,8.76 51.08,13.28zm-51.44 -13.37c-16.95,-4.3 -33.92,-8.5 -50.94,-12.62 17.02,4.11 33.99,8.32 50.94,12.62zm-52.4 -12.97c-349.26,-84.28 -713.68,-128.89 -1088.42,-128.89 -35.74,0 -71.4,0.42 -106.95,1.23l-2.82 0.08c-34.48,0.8 -68.88,1.99 -103.17,3.54l-6.2 0.31c-33.18,1.55 -66.28,3.45 -99.28,5.69l-8.57 0.62c-32.28,2.25 -64.46,4.83 -96.56,7.74l-9.94 0.94c-31.5,2.93 -62.9,6.16 -94.21,9.71l-11.62 1.36c-31,3.6 -61.9,7.5 -92.71,11.71l-11.41 1.59c-30.6,4.26 -61.11,8.82 -91.53,13.68l-12.33 1.99c-30.23,4.92 -60.37,10.12 -90.41,15.63l-12.15 2.24c-30.07,5.59 -60.03,11.47 -89.9,17.64l-11.72 2.43c-29.99,6.28 -59.87,12.86 -89.66,19.72l-11.3 2.59c-30.12,7.01 -60.1,14.33 -89.99,21.93l-9.6 2.42c-30.01,7.69 -59.88,15.72 -89.66,23.99l-9.91 2.73c-30.44,8.54 -60.74,17.4 -90.93,26.54l-6.45 1.93c-30.86,9.39 -61.57,19.12 -92.16,29.13l-5.27 1.72c-31.7,10.42 -63.26,21.17 -94.66,32.27l-1.04 0.37c-31.91,11.27 -63.65,22.89 -95.24,34.84l-2.03 0.77c-30.93,11.72 -61.69,23.76 -92.31,36.12l-4.28 1.75c-29.66,12.01 -59.17,24.31 -88.51,36.91l-7.62 3.32c-28.4,12.25 -56.66,24.77 -84.77,37.56l-8.62 3.96c-27.74,12.71 -55.35,25.67 -82.8,38.9l-9.44 4.59c-27.17,13.17 -54.2,26.6 -81.07,40.28l-9.59 4.91c-26.61,13.63 -53.08,27.51 -79.4,41.63l-10.55 5.7c-26.09,14.09 -52.02,28.42 -77.82,42.99l-10.27 5.83c-25.7,14.61 -51.25,29.47 -76.65,44.55l-10.61 6.33c-25.46,15.21 -50.75,30.67 -75.9,46.33l-9.53 5.96c-25.38,15.91 -50.59,32.08 -75.65,48.46l-8.72 5.7c-25.33,16.65 -50.49,33.56 -75.48,50.69l-7.55 5.17c-25.26,17.39 -50.33,35.03 -75.23,52.91l-6.78 4.84c-25.38,18.28 -50.55,36.83 -75.56,55.6l-4.77 3.56c-25.65,19.32 -51.09,38.91 -76.34,58.75l-2.82 2.2c-26.12,20.54 -52.02,41.38 -77.69,62.47 23.84,-19.59 47.86,-38.94 72.1,-58.07 -191.51,-97.14 -393.16,-176.42 -604.97,-237.83 262.11,-265.18 551.51,-492.65 859.64,-682.23 416.19,-62.65 828.47,-18.88 1236.82,131.32 92.87,-29.04 186.96,-55.23 282.19,-78.47 -247.17,-141.31 -600.98,-241.33 -1061.43,-300.05 1004.33,-473.42 2150.12,-579.87 3188.26,-306.96 6.4,192.78 21.07,392.79 44.07,600.02l17.51 4.19zm-4109.29 991.18l-1.84 1.55c25.39,-21.79 51,-43.32 76.85,-64.55 -25.23,20.73 -50.22,41.75 -75.01,63zm-2.49 2.11l-0.28 0.25c-23.95,20.56 -47.66,41.4 -71.21,62.45l-5.4 4.79c-22.97,20.6 -45.72,41.46 -68.28,62.5l-6.57 6.11c-22.07,20.66 -43.93,41.58 -65.6,62.67l-7.93 7.69c-21.29,20.82 -42.37,41.87 -63.28,63.09l-8.59 8.71c-20.76,21.19 -41.33,42.62 -61.7,64.2l-8.19 8.69c-20.19,21.5 -40.19,43.21 -59.98,65.1l-8.9 9.86c-19.58,21.76 -38.94,43.71 -58.11,65.84l-8.88 10.28c-19.17,22.24 -38.13,44.68 -56.9,67.29l-8.24 9.98c-18.77,22.73 -37.32,45.66 -55.67,68.75l-7.94 10.05c-18.33,23.19 -36.44,46.55 -54.34,70.11l-7.61 10.08c-17.96,23.77 -35.72,47.7 -53.25,71.83l-6.55 9.06c-17.72,24.52 -35.24,49.21 -52.5,74.07l-5.65 8.19c-17.48,25.29 -34.73,50.72 -51.74,76.37l-4.44 6.76c-17.29,26.19 -34.36,52.54 -51.15,79.09l-3.17 5.08c-17.21,27.29 -34.16,54.75 -50.83,82.41l-0.94 1.58c-16.88,28.04 -33.46,56.28 -49.78,84.71l-1.4 2.41c-16.15,28.17 -31.98,56.55 -47.56,85.09l-2.44 4.42c-15.2,27.88 -30.08,55.95 -44.72,84.17l-3.53 6.75c-14.26,27.58 -28.22,55.34 -41.96,83.24l-4.44 8.97c-13.5,27.57 -26.71,55.3 -39.69,83.18l-4.51 9.64c-12.82,27.67 -25.34,55.5 -37.63,83.45l-4.72 10.7c-12.07,27.62 -23.86,55.39 -35.42,83.29l-5.05 12.2c-11.36,27.66 -22.47,55.46 -33.33,83.38l-4.95 12.73c-10.79,27.97 -21.31,56.08 -31.6,84.31l-4.6 12.7c-10.19,28.24 -20.12,56.61 -29.8,85.1l-4.36 12.93c-9.61,28.58 -18.98,57.28 -28.06,86.09l-3.94 12.62c-9.06,29.04 -17.88,58.19 -26.4,87.46l-3.44 11.94c-8.55,29.69 -16.85,59.48 -24.84,89.4l-2.73 10.33c-8.05,30.42 -15.85,60.95 -23.31,91.61l-2.18 9.11c-7.54,31.24 -14.81,62.58 -21.74,94.06l-1.41 6.57c-7.06,32.29 -13.82,64.68 -20.22,97.22l-0.81 4.21c-6.56,33.43 -12.78,67.01 -18.64,100.69 -91.5,77.33 -181.9,163.96 -271.18,259.83 60.66,-1357.97 529.37,-2433.98 1223.4,-3220.19 215.94,44.96 419.69,108.16 611.26,189.6 6.49,-5.65 13,-11.26 19.53,-16.86zm-1383.7 2635.05l-0.25 0.17 0.25 -0.17zm-0.25 0.17l-0.26 0.18 0.26 -0.18zm-0.26 0.18l-0.25 0.17 0.25 -0.17zm-0.25 0.17l-0.26 0.18 0.26 -0.18zm-0.26 0.18l-0.25 0.17 0.25 -0.17zm-0.25 0.17l-0.26 0.18 0 0 0.26 -0.18zm-1.03 0.71l-0.25 0.17 0.26 -0.17 -0.01 0zm-0.25 0.17l-0.25 0.18 0 0 0.25 -0.18zm-0.51 0.35l-0.26 0.18 0.01 0 0.25 -0.18 0 0zm-0.51 0.36l-0.25 0.18 0 -0.01 0.25 -0.17zm-0.51 0.35l-0.26 0.18 0 -0.01 0.26 -0.17 0 0zm-0.6 0.41l-0.17 0.12 0.01 -0.01 0.16 -0.11zm-0.17 0.12l-0.25 0.18 0 -0.01 0.25 -0.17zm-0.25 0.18l-0.26 0.17 0 0 0.26 -0.17zm-0.26 0.17l-0.51 0.36 0.01 0 -0.26 0.17 0 0 0.25 -0.17 0.51 -0.36zm-1.02 0.71l-0.26 0.18 0.01 -0.01 0.25 -0.17zm-0.26 0.18l-0.25 0.18 0 -0.01 0.25 -0.17zm-0.25 0.18l-0.25 0.17 0 -0.01 0.25 -0.16zm-0.25 0.17l-0.26 0.18 0 -0.01 0.26 -0.17zm-0.51 0.35l-0.26 0.18 0 -0.01 0.26 -0.17 0 0zm-0.26 0.18l-0.25 0.18 0 -0.01 0.25 -0.17zm-0.51 0.35l-0.25 0.18 0 0 0.26 -0.18 -0.01 0zm-0.25 0.18l-0.26 0.18 0 -0.01 0.26 -0.17zm-0.26 0.18l-0.26 0.17 0.01 0 0.25 -0.17zm-0.42 0.29l-0.09 0.06 0.01 0 0.08 -0.06zm-0.09 0.06l-0.25 0.18 0 0 0.25 -0.18zm-0.25 0.18l-0.26 0.18 0 -0.01 0.26 -0.17zm-0.26 0.18l-0.26 0.17 0.01 0 0.25 -0.17zm-0.26 0.17l-0.25 0.18 0 0 0.25 -0.18zm-0.5 0.36l-0.26 0.18 0 -0.01 0.26 -0.17zm-0.26 0.18l-0.26 0.18 0 -0.01 0.26 -0.17zm-0.51 0.35l-0.25 0.18 0 -0.01 0.25 -0.17zm-0.25 0.18l-0.26 0.18 0 -0.01 0.26 -0.17zm-0.26 0.18l-0.26 0.18 0 -0.01 0.26 -0.17zm-0.51 0.35l-0.25 0.18 0 -0.01 0.25 -0.17zm-0.25 0.18l-0.26 0.18 0 -0.01 0.26 -0.17zm-1.28 0.88l0 0.01 0 -0.01 0 0zm0 0.01l-0.26 0.18 0 -0.01 0.26 -0.17zm-1.28 0.89l-0.25 0.18 0 -0.01 0.25 -0.17zm-68.55 49.76l-13.92 10.55 0.22 -0.17 0.22 -0.17 0.21 -0.16 0.22 -0.16 0.22 -0.17 0.22 -0.17 0.21 -0.17 0.22 -0.16 0.22 -0.17 0.22 -0.16 0.21 -0.17 0.22 -0.16 0.22 -0.17 0.21 -0.17 0.23 -0.16 0.21 -0.16 0.22 -0.17 0.21 -0.17 0.22 -0.17 0.22 -0.16 0.22 -0.16 0.07 -0.06 0.15 -0.11 0.21 -0.17 0.22 -0.16 0.22 -0.16 0.22 -0.17 0.21 -0.17 0.22 -0.16 0.22 -0.17 0.22 -0.16 0.21 -0.16 0.22 -0.17 0.22 -0.17 0.22 -0.16 0.22 -0.16 0.21 -0.17 0.22 -0.17 0.22 -0.16 0.22 -0.17 0.21 -0.16 0.22 -0.16 0.22 -0.17 0.14 -0.11 0.08 -0.06 0.22 -0.16 0.21 -0.16 0.22 -0.17 0.22 -0.16 0.22 -0.17 0.21 -0.16 0.23 -0.17 0.21 -0.16 0.22 -0.16 0.21 -0.17 0.23 -0.16 0.21 -0.17 0.22 -0.16 0.22 -0.17 0.22 -0.16 0.21 -0.16 0.22 -0.17 0.22 -0.16 0.22 -0.17 0.22 -0.16 0.21 -0.16zm2982.83 4288.85c-3.35,20.39 -6.44,40.62 -9.28,60.66 2.85,-20.04 5.94,-40.27 9.28,-60.66zm8435.84 -1396.14c0.06,6.41 -423.68,406.97 -673.67,573.57 -1008.82,672.28 -2081.98,630.11 -3193.75,-75 405.69,871.48 673.35,1804 803,2797.56 1798.03,-19.64 3297.53,-773.7 4498.55,-2262.23 -277.12,107.74 -582.21,176.82 -915.25,207.23 -149.85,8.86 -136.16,-64.45 -15.02,-110.63 292.35,-111.44 605.2,-223.55 938.56,-336.32 -29.21,-179.16 -273.9,-223.52 -734.09,-133.08 -251.66,46.84 -493.49,89.77 -725.49,128.78 -111.81,8.13 -160.45,-34.8 -145.96,-128.78 170.23,-341.82 280.43,-549.31 163.13,-661.11zm-5157.58 10101.38c-168.39,-0.68 -284.73,-169.74 -349.02,-507.19 1655.51,-747.8 2519.36,-2062.14 2591.57,-3943.01 837.06,1675.66 609.17,2905.2 -683.67,3688.61 1126.39,-146.44 1801.34,111.59 2024.87,774.05 -137.78,-0.34 -206.66,-0.51 -206.66,-0.51 -114.24,-210.3 -271.63,-359.73 -472.19,-448.29 121.74,145.24 195.45,302.64 221.15,472.19 -251.04,-3.99 -376.56,-5.98 -376.56,-5.98 -123.62,-270.84 -342.78,-428.23 -657.49,-472.19 221.19,138.66 374.61,294.06 460.24,466.22 -1701.48,-15.94 -2552.24,-23.91 -2552.24,-23.91z"/>
   </g>
   <path class="fil0" d="M11997.57 3705.49c-397.38,-921.52 -1310.55,-1566.28 -2373.73,-1566.28 -1428.15,0 -2585.9,1163.28 -2585.9,2598.25 0,1050.56 620.58,1955.41 1513.45,2364.86 5.47,-26.58 11.24,-52.79 17.33,-78.63 -3376.23,-2284.98 280.68,-7072.26 3396.92,-3356.19 10.6,12.76 21.25,25.4 31.94,37.99z"/>
   <path class="fil4" d="M8568.72 7023.69c-129.39,549.66 -118.8,1267.31 31.79,2152.93 0.14,-1.28 0.29,-2.55 0.45,-3.82 2.36,-19.78 4.97,-39.73 7.83,-59.85 2.85,-20.04 5.94,-40.27 9.28,-60.66 216.3,1023.06 680.75,1516.84 1393.39,1481.35 153.65,-1289.33 1707.29,-1692.54 2380.88,-616.61 564.31,901.41 -89.84,2040.79 -1145.79,2115.49 -587.58,597.21 -1502.16,879.01 -2743.78,845.42 1031.9,1714.53 1144.7,3136.19 338.41,4264.96 121.23,19.54 236.94,54.62 347.13,105.26 5004.91,356.99 5946.59,-4391.18 3479.2,-9601.63 0,0 -114.89,-85.32 -344.67,-255.93 -4.03,-0.42 -8.05,-0.84 -12.09,-1.27 2.55,-0.67 5.12,-1.34 7.67,-2.01 -0.99,-0.74 -1.98,-1.47 -2.98,-2.21 18.37,-3.8 36.64,-7.63 54.82,-11.52 835.61,-223.01 1473.27,-477.74 1912.97,-764.16 122.64,-86.17 230.25,-175 323,-265.13 68.94,-66.99 137.35,-143.42 199.13,-226.69 -510.43,-68.18 -751.75,-291.9 -723.83,-671.2 267.83,-247.27 581.67,-303.09 941.51,-167.51 -24.26,-79.59 -63.75,-151.07 -115.58,-215.77 -0.01,-0.04 -0.02,-0.06 -0.03,-0.09 -100.82,-126.19 -2231.18,-539.77 -2941.77,-1395.53 -3116.24,-3716.07 -6773.14,1071.21 -3396.92,3356.19zm6236.95 -906.51c10.1,-13.63 20.01,-27.43 29.73,-41.41 -9.71,13.98 -19.63,27.78 -29.73,41.41zm29.77 -41.46c7,-10.07 13.9,-20.24 20.68,-30.49 -6.78,10.24 -13.68,20.41 -20.68,30.49zm29.88 -44.57c6.11,-9.44 12.11,-18.97 18,-28.55 -5.9,9.58 -11.89,19.11 -18,28.55zm28.34 -45.64c3.43,-5.74 6.8,-11.48 10.14,-17.27 -3.34,5.78 -6.71,11.54 -10.14,17.27z"/>
   <path class="fil5" d="M12677.34 7667.71c-3.35,-7.07 -6.49,-14.12 -9.84,-21.19 0,0 -114.89,-85.32 -344.67,-255.93 -4.03,-0.42 -8.05,-0.84 -12.09,-1.27 2.55,-0.67 5.12,-1.34 7.67,-2.01 -0.99,-0.74 -1.98,-1.47 -2.98,-2.21l16.75 -3.48 -2.6 -1.73c-871.9,227.28 -1853.14,223.79 -2943.7,-10.47 1372.48,1205.83 2469.61,1305.16 3291.46,298.28z"/>
   <path class="fil0" d="M14805.35 6117.6c163.46,-220.31 280.34,-488.59 236.63,-757.12 -4.58,-28.12 -10.94,-55.3 -18.96,-81.6 -359.84,-135.58 -673.68,-79.76 -941.51,167.51 -27.92,379.3 213.4,603.02 723.83,671.2z"/>
   <path class="fil4" d="M13316.41 1871.07c-318.55,1153.43 -123.69,1995.06 584.42,2524.98 -411.63,-349.44 -510.49,-779.87 -296.39,-1291.35 273.43,279.01 403.5,631.4 390.23,1057.18 0,0 87.71,55.04 263.13,165.14 -104.64,-1013.99 -447.63,-1830.45 -941.4,-2455.94z"/>
   <path class="fil0" d="M9227.69 3490.4c61.77,-68.91 147.19,-132.37 227.73,-171.41 80.54,-39.06 156.2,-53.7 228.21,-54.92 72,-1.22 140.33,10.98 202.57,26.84 62.23,15.87 118.37,35.39 162.3,57.36 43.94,21.96 75.66,46.37 97.63,70.78 21.96,24.41 34.16,48.82 37.83,79.32 3.66,30.51 -1.22,67.12 -23.19,86.64 -21.96,19.53 -61,21.97 -100.05,14.65 -39.06,-7.32 -78.1,-24.41 -130.57,-39.05 -52.48,-14.65 -118.38,-26.85 -178.18,-29.3 -59.79,-2.44 -113.48,4.89 -169.62,24.41 -56.14,19.53 -114.7,51.25 -167.17,84.21 -52.48,32.94 -98.86,67.11 -139.12,100.06 -40.27,32.95 -74.43,64.67 -100.06,91.52 -25.62,26.85 -42.71,48.81 -58.57,59.79 -15.87,10.98 -30.52,10.98 -42.72,2.44 -12.2,-8.54 -21.96,-25.62 -19.06,-58 2.91,-32.38 18.49,-80.04 45.34,-141.05 26.84,-61.01 64.96,-135.39 126.72,-204.3z"/>
   <ellipse class="fil6" cx="9834.23" cy="4769.69" rx="510.55" ry="702"/>
   <path class="fil7" d="M14762.63 5213.2c21.6,192.75 112.28,333.67 272.01,422.75 18.4,-90.49 22.38,-182.96 7.33,-275.46 -4.58,-28.12 -10.94,-55.3 -18.96,-81.6 -89.65,-33.77 -176.45,-55.68 -260.39,-65.69z"/>
   <path class="fil0" d="M10585.08 6271.75c544.98,478.86 1163.49,679.65 2031.4,418.39 -839.81,22.46 -1507.22,-193.27 -1973.05,-697.21 -118.47,-118.48 -303.14,63.71 -58.36,278.82z"/>
   <circle class="fil7" transform="matrix(0.61546 -0.055808 0.0759001 0.83704 10028.7 4476.59)" r="201.49"/>
   <path class="fil0" d="M5817.67 4639.02c228.83,-973.26 771.19,-1823.35 1512.87,-2435.27 248.52,134.16 474,302.77 676.44,505.86 46.08,-37.13 93.44,-72.71 142.01,-106.66 -202.55,-204.91 -422.08,-379.96 -658.61,-525.15 736.47,-553.13 1648.34,-880.4 2635.78,-880.4 1191.94,0 2273.89,476.72 3070,1252.1 12.69,-95.79 29.71,-194.21 51.05,-295.26 -827.83,-751.39 -1921.73,-1208.41 -3121.05,-1208.41 -1116.49,0 -2141.61,396.07 -2945.76,1056.98 23.84,-19.59 47.86,-38.94 72.1,-58.07 -191.82,-97.3 -393.83,-176.68 -606.03,-238.14 -60.08,60.81 -118.75,123.61 -175.88,188.37 216.47,44.98 420.7,108.28 612.69,189.9 31.97,-27.76 64.31,-55.09 97.03,-81.97 -855.98,703.55 -1461.59,1707.22 -1660.5,2852.73 98.03,-82.85 197.32,-155.05 297.88,-216.62z"/>
  </g>
 </g>
</svg>
